<?xml version="1.0" encoding="UTF-8" standalone="no"?>
<!DOCTYPE svg PUBLIC "-//W3C//DTD SVG 1.1//EN"
 "http://www.w3.org/Graphics/SVG/1.1/DTD/svg11.dtd">
<!-- Generated by graphviz version 2.43.0 (0)
 -->
<!-- Title: snakemake_dag Pages: 1 -->
<svg width="102pt" height="260pt"
 viewBox="0.00 0.00 102.00 260.00" xmlns="http://www.w3.org/2000/svg" xmlns:xlink="http://www.w3.org/1999/xlink">
<g id="graph0" class="graph" transform="scale(1 1) rotate(0) translate(4 256)">
<title>snakemake_dag</title>
<polygon fill="white" stroke="transparent" points="-4,4 -4,-256 98,-256 98,4 -4,4"/>
<!-- 0 -->
<g id="node1" class="node">
<title>0</title>
<path fill="none" stroke="#d6d856" stroke-width="2" d="M44.5,-36C44.5,-36 14.5,-36 14.5,-36 8.5,-36 2.5,-30 2.5,-24 2.5,-24 2.5,-12 2.5,-12 2.5,-6 8.5,0 14.5,0 14.5,0 44.5,0 44.5,0 50.5,0 56.5,-6 56.5,-12 56.5,-12 56.5,-24 56.5,-24 56.5,-30 50.5,-36 44.5,-36"/>
<text text-anchor="middle" x="29.5" y="-15.5" font-family="sans" font-size="10.00">all</text>
</g>
<!-- 1 -->
<g id="node2" class="node">
<title>1</title>
<path fill="none" stroke="#56d8d8" stroke-width="2" d="M44.5,-180C44.5,-180 14.5,-180 14.5,-180 8.5,-180 2.5,-174 2.5,-168 2.5,-168 2.5,-156 2.5,-156 2.5,-150 8.5,-144 14.5,-144 14.5,-144 44.5,-144 44.5,-144 50.5,-144 56.5,-150 56.5,-156 56.5,-156 56.5,-168 56.5,-168 56.5,-174 50.5,-180 44.5,-180"/>
<text text-anchor="middle" x="29.5" y="-159.5" font-family="sans" font-size="10.00">merged</text>
</g>
<!-- 1&#45;&gt;0 -->
<g id="edge2" class="edge">
<title>1&#45;&gt;0</title>
<path fill="none" stroke="grey" stroke-width="2" d="M24.63,-143.98C21.94,-133.67 18.86,-120.19 17.5,-108 15.72,-92.1 15.72,-87.9 17.5,-72 18.46,-63.43 20.26,-54.22 22.19,-45.93"/>
<polygon fill="grey" stroke="grey" stroke-width="2" points="25.63,-46.57 24.63,-36.02 18.84,-44.89 25.63,-46.57"/>
</g>
<!-- 3 -->
<g id="node4" class="node">
<title>3</title>
<path fill="none" stroke="#59d856" stroke-width="2" d="M82,-108C82,-108 39,-108 39,-108 33,-108 27,-102 27,-96 27,-96 27,-84 27,-84 27,-78 33,-72 39,-72 39,-72 82,-72 82,-72 88,-72 94,-78 94,-84 94,-84 94,-96 94,-96 94,-102 88,-108 82,-108"/>
<text text-anchor="middle" x="60.5" y="-87.5" font-family="sans" font-size="10.00">sortmerna</text>
</g>
<!-- 1&#45;&gt;3 -->
<g id="edge4" class="edge">
<title>1&#45;&gt;3</title>
<path fill="none" stroke="grey" stroke-width="2" d="M37.16,-143.7C40.69,-135.73 44.96,-126.1 48.87,-117.26"/>
<polygon fill="grey" stroke="grey" stroke-width="2" points="52.08,-118.67 52.93,-108.1 45.68,-115.83 52.08,-118.67"/>
</g>
<!-- 2 -->
<g id="node3" class="node">
<title>2</title>
<path fill="none" stroke="#d85656" stroke-width="2" d="M47,-252C47,-252 12,-252 12,-252 6,-252 0,-246 0,-240 0,-240 0,-228 0,-228 0,-222 6,-216 12,-216 12,-216 47,-216 47,-216 53,-216 59,-222 59,-228 59,-228 59,-240 59,-240 59,-246 53,-252 47,-252"/>
<text text-anchor="middle" x="29.5" y="-231.5" font-family="sans" font-size="10.00">fastp_pe</text>
</g>
<!-- 2&#45;&gt;1 -->
<g id="edge3" class="edge">
<title>2&#45;&gt;1</title>
<path fill="none" stroke="grey" stroke-width="2" d="M29.5,-215.7C29.5,-207.98 29.5,-198.71 29.5,-190.11"/>
<polygon fill="grey" stroke="grey" stroke-width="2" points="33,-190.1 29.5,-180.1 26,-190.1 33,-190.1"/>
</g>
<!-- 3&#45;&gt;0 -->
<g id="edge1" class="edge">
<title>3&#45;&gt;0</title>
<path fill="none" stroke="grey" stroke-width="2" d="M52.84,-71.7C49.31,-63.73 45.04,-54.1 41.13,-45.26"/>
<polygon fill="grey" stroke="grey" stroke-width="2" points="44.32,-43.83 37.07,-36.1 37.92,-46.67 44.32,-43.83"/>
</g>
</g>
</svg>
