<?xml version="1.0" encoding="UTF-8" standalone="no"?>
<!DOCTYPE svg PUBLIC "-//W3C//DTD SVG 1.1//EN"
 "http://www.w3.org/Graphics/SVG/1.1/DTD/svg11.dtd">
<!-- Generated by graphviz version 2.43.0 (0)
 -->
<!-- Title: snakemake_dag Pages: 1 -->
<svg width="67pt" height="188pt"
 viewBox="0.00 0.00 67.00 188.00" xmlns="http://www.w3.org/2000/svg" xmlns:xlink="http://www.w3.org/1999/xlink">
<g id="graph0" class="graph" transform="scale(1 1) rotate(0) translate(4 184)">
<title>snakemake_dag</title>
<polygon fill="white" stroke="transparent" points="-4,4 -4,-184 63,-184 63,4 -4,4"/>
<!-- 0 -->
<g id="node1" class="node">
<title>0</title>
<path fill="none" stroke="#afd856" stroke-width="2" d="M44.5,-36C44.5,-36 14.5,-36 14.5,-36 8.5,-36 2.5,-30 2.5,-24 2.5,-24 2.5,-12 2.5,-12 2.5,-6 8.5,0 14.5,0 14.5,0 44.5,0 44.5,0 50.5,0 56.5,-6 56.5,-12 56.5,-12 56.5,-24 56.5,-24 56.5,-30 50.5,-36 44.5,-36"/>
<text text-anchor="middle" x="29.5" y="-15.5" font-family="sans" font-size="10.00">all</text>
</g>
<!-- 1 -->
<g id="node2" class="node">
<title>1</title>
<path fill="none" stroke="#d85656" stroke-width="2" d="M44.5,-108C44.5,-108 14.5,-108 14.5,-108 8.5,-108 2.5,-102 2.5,-96 2.5,-96 2.5,-84 2.5,-84 2.5,-78 8.5,-72 14.5,-72 14.5,-72 44.5,-72 44.5,-72 50.5,-72 56.5,-78 56.5,-84 56.5,-84 56.5,-96 56.5,-96 56.5,-102 50.5,-108 44.5,-108"/>
<text text-anchor="middle" x="29.5" y="-87.5" font-family="sans" font-size="10.00">merged</text>
</g>
<!-- 1&#45;&gt;0 -->
<g id="edge1" class="edge">
<title>1&#45;&gt;0</title>
<path fill="none" stroke="grey" stroke-width="2" d="M29.5,-71.7C29.5,-63.98 29.5,-54.71 29.5,-46.11"/>
<polygon fill="grey" stroke="grey" stroke-width="2" points="33,-46.1 29.5,-36.1 26,-46.1 33,-46.1"/>
</g>
<!-- 2 -->
<g id="node3" class="node">
<title>2</title>
<path fill="none" stroke="#56d8a9" stroke-width="2" d="M47,-180C47,-180 12,-180 12,-180 6,-180 0,-174 0,-168 0,-168 0,-156 0,-156 0,-150 6,-144 12,-144 12,-144 47,-144 47,-144 53,-144 59,-150 59,-156 59,-156 59,-168 59,-168 59,-174 53,-180 47,-180"/>
<text text-anchor="middle" x="29.5" y="-159.5" font-family="sans" font-size="10.00">fastp_pe</text>
</g>
<!-- 2&#45;&gt;1 -->
<g id="edge2" class="edge">
<title>2&#45;&gt;1</title>
<path fill="none" stroke="grey" stroke-width="2" d="M29.5,-143.7C29.5,-135.98 29.5,-126.71 29.5,-118.11"/>
<polygon fill="grey" stroke="grey" stroke-width="2" points="33,-118.1 29.5,-108.1 26,-118.1 33,-118.1"/>
</g>
</g>
</svg>
