<?xml version="1.0" encoding="UTF-8" standalone="no"?>
<!DOCTYPE svg PUBLIC "-//W3C//DTD SVG 1.1//EN"
 "http://www.w3.org/Graphics/SVG/1.1/DTD/svg11.dtd">
<!-- Generated by graphviz version 2.43.0 (0)
 -->
<!-- Title: snakemake_dag Pages: 1 -->
<svg width="100pt" height="188pt"
 viewBox="0.00 0.00 99.50 188.00" xmlns="http://www.w3.org/2000/svg" xmlns:xlink="http://www.w3.org/1999/xlink">
<g id="graph0" class="graph" transform="scale(1 1) rotate(0) translate(4 184)">
<title>snakemake_dag</title>
<polygon fill="white" stroke="transparent" points="-4,4 -4,-184 95.5,-184 95.5,4 -4,4"/>
<!-- 0 -->
<g id="node1" class="node">
<title>0</title>
<path fill="none" stroke="#59d856" stroke-width="2" d="M42,-36C42,-36 12,-36 12,-36 6,-36 0,-30 0,-24 0,-24 0,-12 0,-12 0,-6 6,0 12,0 12,0 42,0 42,0 48,0 54,-6 54,-12 54,-12 54,-24 54,-24 54,-30 48,-36 42,-36"/>
<text text-anchor="middle" x="27" y="-15.5" font-family="sans" font-size="10.00">all</text>
</g>
<!-- 1 -->
<g id="node2" class="node">
<title>1</title>
<path fill="none" stroke="#56d8d8" stroke-width="2" d="M42,-180C42,-180 12,-180 12,-180 6,-180 0,-174 0,-168 0,-168 0,-156 0,-156 0,-150 6,-144 12,-144 12,-144 42,-144 42,-144 48,-144 54,-150 54,-156 54,-156 54,-168 54,-168 54,-174 48,-180 42,-180"/>
<text text-anchor="middle" x="27" y="-159.5" font-family="sans" font-size="10.00">merged</text>
</g>
<!-- 1&#45;&gt;0 -->
<g id="edge2" class="edge">
<title>1&#45;&gt;0</title>
<path fill="none" stroke="grey" stroke-width="2" d="M22.13,-143.98C19.44,-133.67 16.36,-120.19 15,-108 13.22,-92.1 13.22,-87.9 15,-72 15.96,-63.43 17.76,-54.22 19.69,-45.93"/>
<polygon fill="grey" stroke="grey" stroke-width="2" points="23.13,-46.57 22.13,-36.02 16.34,-44.89 23.13,-46.57"/>
</g>
<!-- 2 -->
<g id="node3" class="node">
<title>2</title>
<path fill="none" stroke="#d6d856" stroke-width="2" d="M79.5,-108C79.5,-108 36.5,-108 36.5,-108 30.5,-108 24.5,-102 24.5,-96 24.5,-96 24.5,-84 24.5,-84 24.5,-78 30.5,-72 36.5,-72 36.5,-72 79.5,-72 79.5,-72 85.5,-72 91.5,-78 91.5,-84 91.5,-84 91.5,-96 91.5,-96 91.5,-102 85.5,-108 79.5,-108"/>
<text text-anchor="middle" x="58" y="-87.5" font-family="sans" font-size="10.00">sortmerna</text>
</g>
<!-- 1&#45;&gt;2 -->
<g id="edge3" class="edge">
<title>1&#45;&gt;2</title>
<path fill="none" stroke="grey" stroke-width="2" d="M34.66,-143.7C38.19,-135.73 42.46,-126.1 46.37,-117.26"/>
<polygon fill="grey" stroke="grey" stroke-width="2" points="49.58,-118.67 50.43,-108.1 43.18,-115.83 49.58,-118.67"/>
</g>
<!-- 2&#45;&gt;0 -->
<g id="edge1" class="edge">
<title>2&#45;&gt;0</title>
<path fill="none" stroke="grey" stroke-width="2" d="M50.34,-71.7C46.81,-63.73 42.54,-54.1 38.63,-45.26"/>
<polygon fill="grey" stroke="grey" stroke-width="2" points="41.82,-43.83 34.57,-36.1 35.42,-46.67 41.82,-43.83"/>
</g>
</g>
</svg>
